<svg width="40" height="41" viewBox="0 0 40 41" fill="none" xmlns="http://www.w3.org/2000/svg">
<path fill-rule="evenodd" clip-rule="evenodd" d="M2.5 20.5C2.5 20.1685 2.6317 19.8505 2.86612 19.6161C3.10054 19.3817 3.41848 19.25 3.75 19.25H33.2325L25.365 11.385C25.1303 11.1503 24.9984 10.8319 24.9984 10.5C24.9984 10.1681 25.1303 9.84971 25.365 9.61499C25.5997 9.38028 25.9181 9.24841 26.25 9.24841C26.5819 9.24841 26.9003 9.38028 27.135 9.61499L37.135 19.615C37.2514 19.7311 37.3438 19.869 37.4068 20.0209C37.4698 20.1728 37.5022 20.3356 37.5022 20.5C37.5022 20.6644 37.4698 20.8272 37.4068 20.9791C37.3438 21.1309 37.2514 21.2689 37.135 21.385L27.135 31.385C26.9003 31.6197 26.5819 31.7516 26.25 31.7516C25.9181 31.7516 25.5997 31.6197 25.365 31.385C25.1303 31.1503 24.9984 30.8319 24.9984 30.5C24.9984 30.1681 25.1303 29.8497 25.365 29.615L33.2325 21.75H3.75C3.41848 21.75 3.10054 21.6183 2.86612 21.3839C2.6317 21.1495 2.5 20.8315 2.5 20.5Z" fill="white"/>
</svg>
