<svg width="60" height="60" viewBox="0 0 60 60" fill="none" xmlns="http://www.w3.org/2000/svg">
<path d="M15.4167 48.7548C13.4828 48.7548 11.6281 47.957 10.2607 46.537C8.89323 45.1169 8.125 43.1909 8.125 41.1827C8.125 39.1744 8.89323 37.2484 10.2607 35.8284C11.6281 34.4084 13.4828 33.6106 15.4167 33.6106C17.3505 33.6106 19.2052 34.4084 20.5727 35.8284C21.9401 37.2484 22.7083 39.1744 22.7083 41.1827C22.7083 43.1909 21.9401 45.1169 20.5727 46.537C19.2052 47.957 17.3505 48.7548 15.4167 48.7548ZM15.4167 30.3654C12.654 30.3654 10.0045 31.5051 8.05097 33.5337C6.09747 35.5623 5 38.3138 5 41.1827C5 44.0516 6.09747 46.803 8.05097 48.8317C10.0045 50.8603 12.654 52 15.4167 52C18.1793 52 20.8289 50.8603 22.7824 48.8317C24.7359 46.803 25.8333 44.0516 25.8333 41.1827C25.8333 38.3138 24.7359 35.5623 22.7824 33.5337C20.8289 31.5051 18.1793 30.3654 15.4167 30.3654ZM35.8333 26.0385H44.5833V22.1442H37.9167L33.875 15.0697C33.2708 13.988 32.0833 13.274 30.8333 13.274C29.8542 13.274 28.9583 13.6851 28.3333 14.3558L20.625 22.3389C19.9792 23.0096 19.5833 23.875 19.5833 24.9567C19.5833 26.3197 20.2708 27.4663 21.3542 28.137L28.3333 32.5288V43.3462H32.0833V29.2837L27.3958 25.7139L32.2292 20.6298L35.8333 26.0385ZM44.5833 48.7548C42.6495 48.7548 40.7948 47.957 39.4273 46.537C38.0599 45.1169 37.2917 43.1909 37.2917 41.1827C37.2917 39.1744 38.0599 37.2484 39.4273 35.8284C40.7948 34.4084 42.6495 33.6106 44.5833 33.6106C46.5172 33.6106 48.3719 34.4084 49.7393 35.8284C51.1068 37.2484 51.875 39.1744 51.875 41.1827C51.875 43.1909 51.1068 45.1169 49.7393 46.537C48.3719 47.957 46.5172 48.7548 44.5833 48.7548ZM44.5833 30.3654C41.8207 30.3654 39.1711 31.5051 37.2176 33.5337C35.2641 35.5623 34.1667 38.3138 34.1667 41.1827C34.1667 44.0516 35.2641 46.803 37.2176 48.8317C39.1711 50.8603 41.8207 52 44.5833 52C45.9513 52 47.3058 51.7202 48.5696 51.1766C49.8334 50.633 50.9818 49.8362 51.949 48.8317C52.9163 47.8272 53.6836 46.6347 54.2071 45.3223C54.7306 44.0099 55 42.6032 55 41.1827C55 39.7621 54.7306 38.3555 54.2071 37.0431C53.6836 35.7307 52.9163 34.5382 51.949 33.5337C50.9818 32.5292 49.8334 31.7324 48.5696 31.1888C47.3058 30.6452 45.9513 30.3654 44.5833 30.3654ZM38.3333 14.7885C40.4167 14.7885 42.0833 13.0577 42.0833 10.8942C42.0833 8.73077 40.4167 7 38.3333 7C36.25 7 34.5833 8.73077 34.5833 10.8942C34.5833 13.0577 36.25 14.7885 38.3333 14.7885Z" fill="white"/>
</svg>
