<svg width="35" height="32" viewBox="0 0 35 32" fill="none" xmlns="http://www.w3.org/2000/svg">
<path d="M29.2396 14.6667H5.76042C4.99527 14.6667 4.375 15.2338 4.375 15.9333V16.0667C4.375 16.7662 4.99527 17.3333 5.76042 17.3333H29.2396C30.0047 17.3333 30.625 16.7662 30.625 16.0667V15.9333C30.625 15.2338 30.0047 14.6667 29.2396 14.6667Z" fill="white"/>
<path d="M29.2396 21.3333H5.76042C4.99527 21.3333 4.375 21.9004 4.375 22.6V22.7333C4.375 23.4329 4.99527 24 5.76042 24H29.2396C30.0047 24 30.625 23.4329 30.625 22.7333V22.6C30.625 21.9004 30.0047 21.3333 29.2396 21.3333Z" fill="white"/>
<path d="M29.2396 8H5.76042C4.99527 8 4.375 8.56711 4.375 9.26667V9.4C4.375 10.0996 4.99527 10.6667 5.76042 10.6667H29.2396C30.0047 10.6667 30.625 10.0996 30.625 9.4V9.26667C30.625 8.56711 30.0047 8 29.2396 8Z" fill="white"/>
</svg>
