<svg width="60" height="60" viewBox="0 0 60 60" fill="none" xmlns="http://www.w3.org/2000/svg">
<path d="M17.7222 32.8889C18.6799 32.8889 19.5984 32.5084 20.2757 31.8312C20.9529 31.154 21.3333 30.2355 21.3333 29.2778C21.3333 28.3201 20.9529 27.4016 20.2757 26.7243C19.5984 26.0471 18.6799 25.6667 17.7222 25.6667C16.7645 25.6667 15.846 26.0471 15.1688 26.7243C14.4916 27.4016 14.1111 28.3201 14.1111 29.2778C14.1111 30.2355 14.4916 31.154 15.1688 31.8312C15.846 32.5084 16.7645 32.8889 17.7222 32.8889ZM33.6111 29.2778C33.6111 30.2355 33.2307 31.154 32.5534 31.8312C31.8762 32.5084 30.9577 32.8889 30 32.8889C29.0423 32.8889 28.1238 32.5084 27.4466 31.8312C26.7693 31.154 26.3889 30.2355 26.3889 29.2778C26.3889 28.3201 26.7693 27.4016 27.4466 26.7243C28.1238 26.0471 29.0423 25.6667 30 25.6667C30.9577 25.6667 31.8762 26.0471 32.5534 26.7243C33.2307 27.4016 33.6111 28.3201 33.6111 29.2778ZM42.2778 32.8889C43.2355 32.8889 44.154 32.5084 44.8312 31.8312C45.5084 31.154 45.8889 30.2355 45.8889 29.2778C45.8889 28.3201 45.5084 27.4016 44.8312 26.7243C44.154 26.0471 43.2355 25.6667 42.2778 25.6667C41.3201 25.6667 40.4016 26.0471 39.7243 26.7243C39.0471 27.4016 38.6667 28.3201 38.6667 29.2778C38.6667 30.2355 39.0471 31.154 39.7243 31.8312C40.4016 32.5084 41.3201 32.8889 42.2778 32.8889ZM21.3333 40.8333C21.3333 41.7911 20.9529 42.7096 20.2757 43.3868C19.5984 44.064 18.6799 44.4444 17.7222 44.4444C16.7645 44.4444 15.846 44.064 15.1688 43.3868C14.4916 42.7096 14.1111 41.7911 14.1111 40.8333C14.1111 39.8756 14.4916 38.9571 15.1688 38.2799C15.846 37.6027 16.7645 37.2222 17.7222 37.2222C18.6799 37.2222 19.5984 37.6027 20.2757 38.2799C20.9529 38.9571 21.3333 39.8756 21.3333 40.8333ZM30 44.4444C30.9577 44.4444 31.8762 44.064 32.5534 43.3868C33.2307 42.7096 33.6111 41.7911 33.6111 40.8333C33.6111 39.8756 33.2307 38.9571 32.5534 38.2799C31.8762 37.6027 30.9577 37.2222 30 37.2222C29.0423 37.2222 28.1238 37.6027 27.4466 38.2799C26.7693 38.9571 26.3889 39.8756 26.3889 40.8333C26.3889 41.7911 26.7693 42.7096 27.4466 43.3868C28.1238 44.064 29.0423 44.4444 30 44.4444ZM4 13.0278C4 10.6335 4.95114 8.33721 6.64417 6.64417C8.33721 4.95114 10.6335 4 13.0278 4H46.9722C49.3665 4 51.6628 4.95114 53.3558 6.64417C55.0489 8.33721 56 10.6335 56 13.0278V46.9722C56 49.3665 55.0489 51.6628 53.3558 53.3558C51.6628 55.0489 49.3665 56 46.9722 56H13.0278C10.6335 56 8.33721 55.0489 6.64417 53.3558C4.95114 51.6628 4 49.3665 4 46.9722V13.0278ZM13.0278 7.61111C11.5912 7.61111 10.2134 8.18179 9.19762 9.19762C8.18179 10.2134 7.61111 11.5912 7.61111 13.0278V15.5556H52.3889V13.0278C52.3889 11.5912 51.8182 10.2134 50.8024 9.19762C49.7866 8.18179 48.4088 7.61111 46.9722 7.61111H13.0278ZM7.61111 46.9722C7.61111 48.4088 8.18179 49.7866 9.19762 50.8024C10.2134 51.8182 11.5912 52.3889 13.0278 52.3889H46.9722C48.4088 52.3889 49.7866 51.8182 50.8024 50.8024C51.8182 49.7866 52.3889 48.4088 52.3889 46.9722V19.1667H7.61111V46.9722Z" fill="white"/>
</svg>
