<svg width="30" height="30" viewBox="0 0 30 30" fill="none" xmlns="http://www.w3.org/2000/svg">
<path d="M20.0757 3.0675C20.4272 3.41911 20.6246 3.89594 20.6246 4.39312C20.6246 4.89031 20.4272 5.36713 20.0757 5.71875L10.7944 15L20.0757 24.2812C20.4172 24.6349 20.6062 25.1085 20.6019 25.6001C20.5977 26.0917 20.4005 26.562 20.0528 26.9097C19.7052 27.2573 19.2349 27.4545 18.7433 27.4588C18.2517 27.463 17.778 27.274 17.4244 26.9325L6.8175 16.3256C6.466 15.974 6.2686 15.4972 6.2686 15C6.2686 14.5028 6.466 14.026 6.8175 13.6744L17.4244 3.0675C17.776 2.71599 18.2528 2.51852 18.75 2.51852C19.2472 2.51852 19.724 2.71599 20.0757 3.0675Z" fill="#F2785C"/>
</svg>
