<svg width="216" height="32" viewBox="0 0 216 32" fill="none" xmlns="http://www.w3.org/2000/svg">
<path d="M2.59123 8.8325C2.83304 8.525 3.15151 8.10875 3.40654 7.81125C4.17032 6.99125 4.26942 6.88375 4.96449 6.2775C5.17063 6.1175 5.41509 5.925 5.65426 5.74375C3.89018 7.15625 3.66554 8.72 5.28427 9.68625C5.28163 9.68625 5.28163 9.68625 5.28163 9.68875C7.54521 10.9788 12.5058 10.7 16.4198 9.0475C20.211 7.4475 21.6103 5.15875 19.7392 3.79875C18.0967 3.5075 16.1384 3.47375 14.0664 3.73625L13.851 3.4L14.0294 2.8425C15.2477 2.73875 16.4053 2.76375 17.4043 2.925C17.6461 2.96375 17.9646 3.03 18.2024 3.0775C18.6623 3.18375 18.912 3.2475 19.212 3.33875C19.5185 3.425 19.7802 3.51125 20.2361 3.67125C20.6827 3.8375 20.8756 3.9125 21.2337 4.08125C21.6348 4.25433 22.0244 4.4501 22.4005 4.6675C25.3817 6.44125 23.5277 9.6775 18.2672 11.895C13.0211 14.105 6.33611 14.4525 3.34047 12.7C3.33915 12.6975 3.33518 12.695 3.32725 12.6925H3.33254C1.69663 11.7125 1.52484 10.29 2.59123 8.8325V8.8325ZM16.2401 21.2325L16.1978 19.24L14.7007 17.665C9.75461 18.725 4.89313 18.4975 2.18952 16.9913C2.18027 16.9813 2.1578 16.9713 2.14855 16.9613C0.618354 16.07 0.24043 14.92 0.355393 13.67C-0.00271022 15.4987 -0.0317813 16.1587 0.0197538 17.7237C0.0831817 18.7037 0.681782 19.6075 1.88559 20.32L1.89484 20.33C4.77685 22.025 10.7814 22.3925 16.2401 21.2325ZM22.4838 23.5137C15.5028 26.1625 6.76557 26.3188 2.97047 23.8675C3.38032 24.815 3.93798 25.6989 4.62488 26.49C8.10813 28.74 16.1278 28.5963 22.5327 26.165C26.2815 24.7438 28.6469 22.8525 29.2679 21.08L29.4424 20.5463C29.856 19.1938 29.9339 18.0675 30 17.065C29.9247 19.2413 27.2145 21.7162 22.4838 23.5137V23.5137ZM7.07346 28.615C7.29282 28.8125 7.9826 29.6138 11.4777 30.4988C12.4225 30.6963 14.8011 31.33 19.1948 30.4088L19.2212 30.03L18.8737 29.515C14.7971 30.4275 10.2686 30.1225 7.07346 28.615V28.615ZM17.1611 12.8537L20.873 15.515C20.873 15.515 21.6672 16.0562 20.9179 16.4362C20.1713 16.8125 18.2539 17.7338 18.2539 17.7338L16.3604 17.065L15.4103 17.465L17.0858 18.8412L17.099 20.9825L18.0835 20.5687L18.7363 18.76C18.7363 18.76 20.7409 18.03 21.5363 17.755C22.3358 17.4863 22.2288 18.4063 22.2288 18.4063L21.835 22.795L23.1432 22.245L25.2971 16.3237C25.2971 16.3237 26.4388 15.7988 27.2422 15.3375C28.0443 14.8763 28.3192 14.1113 28.3192 14.1113C28.3192 14.1113 27.5369 13.7925 26.6357 14.0488C25.7345 14.3025 24.5597 14.755 24.5597 14.755L18.4654 12.3063L17.1611 12.8537V12.8537ZM9.30797 4.43375L11.8279 6.3325L12.5164 6.235L11.1447 4.53125C11.1447 4.53125 10.8461 4.17875 11.2478 4.095C11.6522 4.01 12.6749 3.8125 12.6749 3.8125L13.444 4.39375L13.962 4.32125L13.3753 3.43875L13.6845 2.46L13.1837 2.52875L12.5904 3.27375C12.5904 3.27375 11.5491 3.36625 11.1395 3.39875C10.7272 3.42875 10.9042 3.01 10.9042 3.01L11.6944 1L11.002 1.09625L9.17848 3.6075C9.17848 3.6075 8.57063 3.7125 8.13059 3.83125C7.68924 3.94875 7.45667 4.27125 7.45667 4.27125C7.45667 4.27125 7.78042 4.51875 8.23631 4.51C8.69616 4.50125 9.30797 4.43375 9.30797 4.43375V4.43375ZM21.7623 28.8312L20.1317 28.025L19.7564 28.1487L20.7224 28.9662C20.7224 28.9662 20.9285 29.1325 20.7118 29.2212C20.4951 29.3087 19.9427 29.5238 19.9427 29.5238L19.4868 29.3313L19.2159 29.4238L19.5952 29.8063L19.5582 30.365L19.841 30.2725L20.0524 29.8188C20.0524 29.8188 20.6259 29.6575 20.8545 29.6C21.0818 29.5412 21.0302 29.7937 21.0302 29.7937L20.8148 31L21.1915 30.8762L21.9301 29.2812C21.9301 29.2812 22.2565 29.16 22.4904 29.0487C22.7243 28.9375 22.8168 28.7325 22.8168 28.7325C22.8168 28.7325 22.6093 28.625 22.353 28.6787C22.0953 28.73 21.7623 28.8312 21.7623 28.8312Z" fill="white"/>
<path d="M46.944 12.28V31H41.696V12.28H36.288L36.8 8.344H52.064L51.552 12.28H46.944ZM58.007 17.24C58.327 16.1093 58.8603 15.2133 59.607 14.552C60.3537 13.8907 61.2177 13.56 62.199 13.56C63.2017 13.56 64.1083 13.7627 64.919 14.168L63.799 18.04C63.1377 17.848 62.5723 17.752 62.103 17.752C61.271 17.752 60.5137 18.0613 59.831 18.68C59.1697 19.2987 58.839 20.2053 58.839 21.4V31H53.943V18.936L53.591 14.2L57.303 13.72L57.879 17.24H58.007ZM73.4905 19.352C73.4905 18.648 73.3412 18.136 73.0425 17.816C72.7438 17.4747 72.1678 17.304 71.3145 17.304C70.4612 17.304 69.0532 17.6133 67.0905 18.232L65.7145 15.224C66.4398 14.8187 67.4425 14.4453 68.7225 14.104C70.0238 13.7413 71.2932 13.56 72.5305 13.56C73.7892 13.56 74.8345 13.7093 75.6665 14.008C76.5198 14.3067 77.1278 14.7547 77.4905 15.352C77.8745 15.928 78.1198 16.504 78.2265 17.08C78.3545 17.656 78.4185 18.3813 78.4185 19.256V25.272C78.4185 26.0613 78.4932 26.7013 78.6425 27.192C78.8132 27.6827 79.1652 28.216 79.6985 28.792L76.9145 31.384C76.4238 31.1493 75.9438 30.7973 75.4745 30.328C75.0265 29.8587 74.6958 29.4213 74.4825 29.016H74.3545C73.1172 30.5947 71.5492 31.384 69.6505 31.384C66.5785 31.384 65.0425 29.7947 65.0425 26.616C65.0425 24.9307 65.5225 23.672 66.4825 22.84C67.4638 22.008 68.8718 21.432 70.7065 21.112L73.4905 20.632V19.352ZM69.6825 26.104C69.6825 27.1493 70.2372 27.672 71.3465 27.672C72.1998 27.672 72.9252 27.3733 73.5225 26.776V23.768C72.1572 23.96 71.1758 24.2267 70.5785 24.568C69.9812 24.888 69.6825 25.4 69.6825 26.104ZM89.7608 13.688L94.2408 14.2L90.0168 31H84.2888L79.8407 14.168L84.5768 13.688L87.1048 26.648H87.2968L89.7608 13.688ZM102.985 13.56C105.118 13.56 106.686 14.1467 107.689 15.32C108.521 16.28 109.033 17.88 109.225 20.12C109.289 21.016 109.321 22.136 109.321 23.48L107.049 23.8H100.457C100.457 25.0587 100.691 26.008 101.161 26.648C101.63 27.2667 102.462 27.576 103.657 27.576C104.873 27.576 106.334 27.2667 108.041 26.648L109.033 29.656C107.006 30.808 104.894 31.384 102.697 31.384C97.7258 31.384 95.2405 28.44 95.2405 22.552C95.2405 19.7787 95.8805 17.592 97.1605 15.992C98.4618 14.3707 100.403 13.56 102.985 13.56ZM104.073 18.104C103.859 17.6133 103.379 17.368 102.633 17.368C101.886 17.368 101.353 17.6453 101.033 18.2C100.713 18.7333 100.531 19.544 100.489 20.632H104.393C104.393 19.416 104.286 18.5733 104.073 18.104ZM116.556 25.144C116.556 26.1893 116.62 26.9573 116.748 27.448C116.898 27.9387 117.25 28.5253 117.804 29.208L114.284 31.8C113.26 30.712 112.556 29.7627 112.172 28.952C111.81 28.12 111.628 26.8827 111.628 25.24V7.384L116.556 6.84V25.144ZM126.894 8.344H135.086C138.009 8.344 140.025 9.03733 141.134 10.424C142.094 11.6613 142.574 13.24 142.574 15.16C142.574 17.144 141.987 18.8827 140.814 20.376C140.195 21.1867 139.257 21.8373 137.998 22.328C136.761 22.7973 135.267 23.032 133.518 23.032H132.142V31H126.894V8.344ZM132.142 11.928V19.256H133.87C134.958 19.256 135.737 18.968 136.206 18.392C136.697 17.816 136.942 16.9093 136.942 15.672C136.942 14.4133 136.739 13.4747 136.334 12.856C135.929 12.2373 135.107 11.928 133.87 11.928H132.142ZM152.177 13.56C153.351 13.56 154.375 13.7413 155.249 14.104C156.124 14.4667 156.807 14.936 157.297 15.512C157.809 16.0667 158.215 16.76 158.513 17.592C159.004 18.9573 159.249 20.632 159.249 22.616C159.249 25.6667 158.396 27.9813 156.689 29.56C155.388 30.776 153.596 31.384 151.313 31.384C150.14 31.384 149.116 31.2027 148.241 30.84C147.367 30.4773 146.673 30.0187 146.161 29.464C145.671 28.888 145.265 28.184 144.945 27.352C144.455 26.0293 144.209 24.3547 144.209 22.328C144.209 20.4507 144.583 18.7973 145.329 17.368C146.631 14.8293 148.913 13.56 152.177 13.56ZM154.033 22.552C154.033 20.6107 153.884 19.2667 153.585 18.52C153.287 17.752 152.647 17.368 151.665 17.368C150.705 17.368 150.087 17.7307 149.809 18.456C149.553 19.1813 149.425 20.504 149.425 22.424C149.425 24.344 149.575 25.688 149.873 26.456C150.172 27.2027 150.812 27.576 151.793 27.576C152.775 27.576 153.393 27.224 153.649 26.52C153.905 25.7947 154.033 24.472 154.033 22.552ZM165.82 17.24C166.14 16.1093 166.673 15.2133 167.42 14.552C168.166 13.8907 169.03 13.56 170.012 13.56C171.014 13.56 171.921 13.7627 172.732 14.168L171.612 18.04C170.95 17.848 170.385 17.752 169.916 17.752C169.084 17.752 168.326 18.0613 167.644 18.68C166.982 19.2987 166.652 20.2053 166.652 21.4V31H161.756V18.936L161.404 14.2L165.116 13.72L165.692 17.24H165.82ZM179.639 13.816H183.959L183.383 17.368H179.639V24.696C179.639 25.784 179.788 26.5413 180.087 26.968C180.386 27.3947 180.898 27.608 181.623 27.608C181.922 27.608 182.53 27.5013 183.447 27.288L184.311 30.136C183.906 30.456 183.244 30.744 182.327 31C181.431 31.256 180.61 31.384 179.863 31.384C177.751 31.384 176.364 30.8507 175.703 29.784C175.063 28.696 174.743 26.9253 174.743 24.472V17.368H172.279L172.727 14.168L174.839 13.88L175.031 10.68L179.639 9.304V13.816ZM193.334 19.352C193.334 18.648 193.185 18.136 192.886 17.816C192.588 17.4747 192.012 17.304 191.158 17.304C190.305 17.304 188.897 17.6133 186.934 18.232L185.558 15.224C186.284 14.8187 187.286 14.4453 188.566 14.104C189.868 13.7413 191.137 13.56 192.374 13.56C193.633 13.56 194.678 13.7093 195.51 14.008C196.364 14.3067 196.972 14.7547 197.334 15.352C197.718 15.928 197.964 16.504 198.07 17.08C198.198 17.656 198.262 18.3813 198.262 19.256V25.272C198.262 26.0613 198.337 26.7013 198.486 27.192C198.657 27.6827 199.009 28.216 199.542 28.792L196.758 31.384C196.268 31.1493 195.788 30.7973 195.318 30.328C194.87 29.8587 194.54 29.4213 194.326 29.016H194.198C192.961 30.5947 191.393 31.384 189.494 31.384C186.422 31.384 184.886 29.7947 184.886 26.616C184.886 24.9307 185.366 23.672 186.326 22.84C187.308 22.008 188.716 21.432 190.55 21.112L193.334 20.632V19.352ZM189.526 26.104C189.526 27.1493 190.081 27.672 191.19 27.672C192.044 27.672 192.769 27.3733 193.366 26.776V23.768C192.001 23.96 191.02 24.2267 190.422 24.568C189.825 24.888 189.526 25.4 189.526 26.104ZM206.213 25.144C206.213 26.1893 206.277 26.9573 206.405 27.448C206.554 27.9387 206.906 28.5253 207.461 29.208L203.941 31.8C202.917 30.712 202.213 29.7627 201.829 28.952C201.466 28.12 201.285 26.8827 201.285 25.24V7.384L206.213 6.84V25.144Z" fill="white"/>
</svg>
