<svg width="60" height="60" viewBox="0 0 60 60" fill="none" xmlns="http://www.w3.org/2000/svg">
<path d="M53.9305 50.9545C53.9305 51.497 53.7174 52.0173 53.3379 52.4009C52.9585 52.7845 52.4439 53 51.9074 53H15.4904C14.9539 53 14.4393 52.7845 14.0598 52.4009C13.6804 52.0173 13.4673 51.497 13.4673 50.9545C13.4673 50.4121 13.6804 49.8918 14.0598 49.5082C14.4393 49.1246 14.9539 48.9091 15.4904 48.9091H51.9074C52.4439 48.9091 52.9585 49.1246 53.3379 49.5082C53.7174 49.8918 53.9305 50.4121 53.9305 50.9545ZM60 30.5V36.6364C60 37.1789 59.7868 37.6991 59.4074 38.0827C59.028 38.4663 58.5134 38.6818 57.9768 38.6818H13.4167C11.24 38.6894 9.11942 37.9834 7.37311 36.6696C5.6268 35.3558 4.34881 33.5051 3.7308 31.3949L0.164977 19.4034C-0.0121092 18.7898 -0.0471935 18.1431 0.0624379 17.5136C0.172069 16.884 0.423477 16.2884 0.797215 15.7728C1.17939 15.2642 1.67273 14.8518 2.23866 14.5679C2.8046 14.2841 3.4278 14.1364 4.05956 14.1364H8.40936C8.70472 14.137 8.99627 14.2038 9.26302 14.332C9.52977 14.4603 9.76509 14.6467 9.95202 14.8779L14.403 20.2727H18.7528L16.4767 13.3949C16.2718 12.7789 16.215 12.1225 16.3111 11.4799C16.4071 10.8373 16.6531 10.2271 17.0288 9.69976C17.4046 9.17246 17.8991 8.74324 18.4716 8.44765C19.0441 8.15207 19.6779 7.99862 20.3207 8.00003H24.5947C24.8756 7.99853 25.1537 8.05697 25.4108 8.17152C25.6679 8.28607 25.8983 8.45415 26.0867 8.6648L36.6072 20.2727H49.8842C52.5671 20.2727 55.1401 21.3503 57.0372 23.2682C58.9342 25.1862 60 27.7876 60 30.5ZM55.9537 30.5C55.947 28.8746 55.3054 27.3177 54.1686 26.1684C53.0318 25.0191 51.4919 24.3704 49.8842 24.3637H35.7221C35.4411 24.3651 35.163 24.3067 34.9059 24.1922C34.6488 24.0776 34.4185 23.9095 34.23 23.6989L23.7095 12.0909H20.3207L23.4819 21.679C23.5809 21.9865 23.6073 22.3132 23.559 22.6328C23.5107 22.9525 23.389 23.2563 23.2037 23.5199C23.0169 23.7837 22.77 23.9981 22.4838 24.1449C22.1977 24.2918 21.8808 24.3668 21.5599 24.3637H13.4673C13.1719 24.363 12.8804 24.2962 12.6136 24.168C12.3469 24.0398 12.1115 23.8534 11.9246 23.6222L7.47365 18.2273H4.03428L7.6001 30.2188C7.97187 31.4853 8.73962 32.5959 9.78826 33.3841C10.8369 34.1723 12.11 34.5958 13.4167 34.5909H55.9537V30.5Z" fill="white"/>
</svg>
